<svg width="40" height="40" viewBox="0 0 40 40" fill="none" xmlns="http://www.w3.org/2000/svg">
<rect width="40" height="40" rx="16" fill="#1DA1F2"/>
<path d="M28 15.0667C27.4 15.3333 26.8 15.5333 26.1333 15.6C26.8 15.2 27.3333 14.5333 27.6 13.8C26.9333 14.2 26.2667 14.4667 25.5333 14.6C24.9333 13.9333 24.0667 13.5333 23.1333 13.5333C21.3333 13.5333 19.8667 15 19.8667 16.8C19.8667 17.0667 19.8667 17.3333 19.9333 17.5333C17.1333 17.4 14.7333 16.0667 13.1333 14.0667C12.8 14.6 12.6667 15.1333 12.6667 15.7333C12.6667 16.8667 13.2667 17.8667 14.1333 18.4667C13.6 18.4667 13.0667 18.3333 12.6667 18.0667C12.6667 18.0667 12.6667 18.0667 12.6667 18.1333C12.6667 19.7333 13.8 21.0667 15.2667 21.3333C15 21.4 14.7333 21.4667 14.4 21.4667C14.2 21.4667 14 21.4667 13.8 21.4C14.2 22.7333 15.4 23.6667 16.8667 23.6667C15.7333 24.5333 14.3333 25.0667 12.8 25.0667C12.5333 25.0667 12.2667 25.0667 12 25C13.4667 25.9333 15.2 26.4667 17 26.4667C23.0667 26.4667 26.3333 21.4667 26.3333 17.1333C26.3333 17 26.3333 16.8667 26.3333 16.7333C27 16.2667 27.5333 15.6667 28 15.0667Z" fill="white"/>
</svg>
