<svg width="97" height="24" viewBox="0 0 97 24" fill="none" xmlns="http://www.w3.org/2000/svg">
<path d="M34.336 21.24C32.912 21.24 31.784 21.072 30.952 20.736C30.136 20.384 29.56 19.952 29.224 19.44C28.888 18.912 28.72 18.392 28.72 17.88C28.72 17.336 28.848 16.904 29.104 16.584C29.36 16.248 29.696 16.008 30.112 15.864C30.528 15.72 30.968 15.648 31.432 15.648C31.432 17.008 31.736 18.04 32.344 18.744C32.968 19.448 33.76 19.8 34.72 19.8C35.664 19.8 36.392 19.552 36.904 19.056C37.432 18.56 37.696 17.944 37.696 17.208C37.696 16.392 37.36 15.736 36.688 15.24C36.032 14.744 35.032 14.224 33.688 13.68C32.568 13.216 31.68 12.736 31.024 12.24C30.368 11.728 29.896 11.168 29.608 10.56C29.336 9.936 29.2 9.232 29.2 8.448C29.2 7.472 29.456 6.624 29.968 5.904C30.48 5.184 31.176 4.624 32.056 4.224C32.952 3.824 33.96 3.624 35.08 3.624C36.84 3.624 38.128 3.896 38.944 4.44C39.776 4.968 40.192 5.624 40.192 6.408C40.192 6.968 39.944 7.44 39.448 7.824C38.968 8.208 38.232 8.4 37.24 8.4C37.24 7.952 37.152 7.472 36.976 6.96C36.816 6.448 36.552 6.008 36.184 5.64C35.816 5.272 35.32 5.088 34.696 5.088C34.056 5.088 33.496 5.28 33.016 5.664C32.552 6.032 32.32 6.576 32.32 7.296C32.32 7.744 32.424 8.16 32.632 8.544C32.84 8.928 33.232 9.312 33.808 9.696C34.384 10.064 35.208 10.464 36.28 10.896C37.928 11.568 39.104 12.288 39.808 13.056C40.512 13.824 40.864 14.8 40.864 15.984C40.864 17.008 40.592 17.92 40.048 18.72C39.52 19.504 38.768 20.12 37.792 20.568C36.816 21.016 35.664 21.24 34.336 21.24ZM45.6865 5.976C45.1105 5.976 44.6225 5.84 44.2225 5.568C43.8385 5.28 43.6465 4.84 43.6465 4.248C43.6465 3.64 43.8385 3.2 44.2225 2.928C44.6225 2.656 45.1105 2.52 45.6865 2.52C46.2465 2.52 46.7265 2.656 47.1265 2.928C47.5425 3.2 47.7505 3.64 47.7505 4.248C47.7505 4.84 47.5425 5.28 47.1265 5.568C46.7265 5.84 46.2465 5.976 45.6865 5.976ZM41.9905 21V19.728H42.2785C42.5185 19.728 42.7665 19.696 43.0225 19.632C43.2945 19.552 43.5185 19.4 43.6945 19.176C43.8865 18.952 43.9825 18.616 43.9825 18.168V10.872C43.9825 10.44 43.8865 10.12 43.6945 9.912C43.5025 9.704 43.2705 9.568 42.9985 9.504C42.7425 9.44 42.5025 9.408 42.2785 9.408H41.9905V8.136H47.6305V18.168C47.6305 18.616 47.7185 18.952 47.8945 19.176C48.0865 19.4 48.3185 19.552 48.5905 19.632C48.8625 19.696 49.1105 19.728 49.3345 19.728H49.6225V21H41.9905ZM50.02 21V19.728H50.092C50.636 19.728 51.076 19.632 51.412 19.44C51.764 19.232 51.94 18.752 51.94 18V11.04C51.94 10.336 51.78 9.888 51.46 9.696C51.156 9.504 50.74 9.408 50.212 9.408H50.14V8.136H54.988L55.468 10.008H55.588C55.908 9.288 56.308 8.752 56.788 8.4C57.268 8.032 57.996 7.848 58.972 7.848C60.812 7.848 61.732 8.496 61.732 9.792C61.732 10.528 61.46 11.104 60.916 11.52C60.388 11.92 59.644 12.12 58.684 12.12C58.684 11.464 58.604 10.968 58.444 10.632C58.284 10.296 57.972 10.128 57.508 10.128C57.092 10.128 56.756 10.272 56.5 10.56C56.244 10.848 56.052 11.208 55.924 11.64C55.796 12.056 55.708 12.48 55.66 12.912C55.612 13.344 55.588 13.696 55.588 13.968V18.12C55.588 18.824 55.748 19.272 56.068 19.464C56.388 19.64 56.788 19.728 57.268 19.728H58.036V21H50.02ZM65.7265 5.976C65.1505 5.976 64.6625 5.84 64.2625 5.568C63.8785 5.28 63.6865 4.84 63.6865 4.248C63.6865 3.64 63.8785 3.2 64.2625 2.928C64.6625 2.656 65.1505 2.52 65.7265 2.52C66.2865 2.52 66.7665 2.656 67.1665 2.928C67.5825 3.2 67.7905 3.64 67.7905 4.248C67.7905 4.84 67.5825 5.28 67.1665 5.568C66.7665 5.84 66.2865 5.976 65.7265 5.976ZM62.0305 21V19.728H62.3185C62.5585 19.728 62.8065 19.696 63.0625 19.632C63.3345 19.552 63.5585 19.4 63.7345 19.176C63.9265 18.952 64.0225 18.616 64.0225 18.168V10.872C64.0225 10.44 63.9265 10.12 63.7345 9.912C63.5425 9.704 63.3105 9.568 63.0385 9.504C62.7825 9.44 62.5425 9.408 62.3185 9.408H62.0305V8.136H67.6705V18.168C67.6705 18.616 67.7585 18.952 67.9345 19.176C68.1265 19.4 68.3585 19.552 68.6305 19.632C68.9025 19.696 69.1505 19.728 69.3745 19.728H69.6625V21H62.0305ZM75.772 21.24C74.524 21.24 73.564 20.856 72.892 20.088C72.22 19.304 71.884 18.104 71.884 16.488V11.112C71.884 10.408 71.756 9.952 71.5 9.744C71.244 9.52 70.828 9.408 70.252 9.408H70.204V8.136H75.532V15.816C75.532 16.84 75.66 17.664 75.916 18.288C76.172 18.896 76.652 19.2 77.356 19.2C78.124 19.2 78.676 18.872 79.012 18.216C79.364 17.56 79.54 16.672 79.54 15.552V10.944C79.54 10.24 79.364 9.808 79.012 9.648C78.676 9.488 78.276 9.408 77.812 9.408H77.74V8.136H83.188V18.216C83.188 18.904 83.34 19.328 83.644 19.488C83.948 19.648 84.332 19.728 84.796 19.728H84.988V21H80.212L79.684 19.296H79.564C79.084 20.128 78.516 20.664 77.86 20.904C77.22 21.128 76.524 21.24 75.772 21.24ZM90.6518 21.24C88.9078 21.24 87.6678 20.976 86.9318 20.448C86.1958 19.904 85.8278 19.232 85.8278 18.432C85.8278 17.904 85.9558 17.512 86.2118 17.256C86.4678 17 86.7718 16.832 87.1238 16.752C87.4758 16.656 87.7878 16.608 88.0598 16.608C88.0598 17.6 88.2918 18.384 88.7558 18.96C89.2358 19.536 89.8678 19.824 90.6518 19.824C91.4838 19.824 92.0838 19.664 92.4518 19.344C92.8358 19.024 93.0278 18.64 93.0278 18.192C93.0278 17.664 92.8198 17.232 92.4038 16.896C91.9878 16.56 91.2118 16.192 90.0758 15.792C88.7798 15.344 87.7878 14.816 87.0998 14.208C86.4118 13.584 86.0678 12.736 86.0678 11.664C86.0678 10.384 86.5398 9.432 87.4838 8.808C88.4278 8.168 89.6758 7.848 91.2278 7.848C92.2358 7.848 93.0438 7.96 93.6518 8.184C94.2758 8.392 94.7238 8.672 94.9958 9.024C95.2838 9.36 95.4278 9.712 95.4278 10.08C95.4278 10.624 95.2358 11.04 94.8518 11.328C94.4838 11.6 93.8598 11.736 92.9798 11.736C92.9798 10.936 92.8038 10.32 92.4518 9.888C92.0998 9.44 91.5718 9.216 90.8678 9.216C90.3558 9.216 89.8998 9.344 89.4998 9.6C89.1158 9.84 88.9238 10.208 88.9238 10.704C88.9238 11.04 89.0118 11.336 89.1878 11.592C89.3798 11.848 89.7158 12.096 90.1958 12.336C90.6758 12.576 91.3478 12.848 92.2118 13.152C93.2838 13.52 94.1558 14.008 94.8278 14.616C95.5158 15.208 95.8598 16.008 95.8598 17.016C95.8598 18.344 95.4038 19.384 94.4918 20.136C93.5958 20.872 92.3158 21.24 90.6518 21.24Z" fill="#052461"/>
<path fill-rule="evenodd" clip-rule="evenodd" d="M13.3507 3.49256C13.4306 2.69343 12.8031 2 12 2C11.1969 2 10.5693 2.69343 10.6492 3.49256L11.3952 10.9525L5.30769 6.5765C4.65558 6.10773 3.74128 6.30448 3.33972 7C2.93817 7.69552 3.22492 8.5857 3.95694 8.91606L10.7905 12L3.95699 15.0839C3.22497 15.4143 2.93822 16.3045 3.33977 17C3.74133 17.6955 4.65563 17.8923 5.30774 17.4235L11.3952 13.0475L10.6492 20.5074C10.5693 21.3066 11.1969 22 12 22C12.8031 22 13.4306 21.3066 13.3507 20.5074L12.6047 13.0474L18.6923 17.4235C19.3444 17.8923 20.2587 17.6955 20.6602 17C21.0618 16.3045 20.775 15.4143 20.043 15.0839L13.2095 12L20.0431 8.91606C20.7751 8.5857 21.0618 7.69552 20.6603 7C20.2587 6.30448 19.3444 6.10773 18.6923 6.5765L12.6047 10.9526L13.3507 3.49256Z" fill="#2796CE"/>
<path d="M13.3507 3.49256L12.8532 3.4428V3.4428L13.3507 3.49256ZM10.6492 3.49256L11.1467 3.44281V3.44281L10.6492 3.49256ZM11.3952 10.9525L11.1034 11.3585L12.003 12.0052L11.8927 10.9028L11.3952 10.9525ZM5.30769 6.5765L5.01584 6.98249H5.01584L5.30769 6.5765ZM3.33972 7L2.90671 6.75L3.33972 7ZM3.95694 8.91606L3.75127 9.3718H3.75127L3.95694 8.91606ZM10.7905 12L10.9962 12.4558L12.006 12L10.9962 11.5443L10.7905 12ZM3.95699 15.0839L3.75132 14.6282H3.75132L3.95699 15.0839ZM3.33977 17L2.90676 17.25L3.33977 17ZM5.30774 17.4235L5.01589 17.0175H5.01589L5.30774 17.4235ZM11.3952 13.0475L11.8927 13.0972L12.003 11.9948L11.1034 12.6415L11.3952 13.0475ZM10.6492 20.5074L11.1467 20.5572L10.6492 20.5074ZM13.3507 20.5074L13.8482 20.4577L13.3507 20.5074ZM12.6047 13.0474L12.8966 12.6415L11.997 11.9948L12.1072 13.0972L12.6047 13.0474ZM18.6923 17.4235L18.9841 17.0175H18.9841L18.6923 17.4235ZM20.043 15.0839L20.2487 14.6282L20.043 15.0839ZM13.2095 12L13.0038 11.5443L11.994 12L13.0038 12.4558L13.2095 12ZM20.0431 8.91606L19.8374 8.46032L20.0431 8.91606ZM18.6923 6.5765L18.4005 6.17051V6.17051L18.6923 6.5765ZM12.6047 10.9526L12.1072 10.9028L11.997 12.0053L12.8966 11.3586L12.6047 10.9526ZM12 2.5C12.5073 2.5 12.9037 2.93802 12.8532 3.4428L13.8482 3.54231C13.9576 2.44883 13.0989 1.5 12 1.5V2.5ZM11.1467 3.44281C11.0963 2.93802 11.4927 2.5 12 2.5V1.5C10.901 1.5 10.0424 2.44884 10.1517 3.54231L11.1467 3.44281ZM11.8927 10.9028L11.1467 3.44281L10.1517 3.54231L10.8977 11.0023L11.8927 10.9028ZM11.6871 10.5466L5.59953 6.17051L5.01584 6.98249L11.1034 11.3585L11.6871 10.5466ZM5.59953 6.17051C4.70723 5.52908 3.45617 5.7983 2.90671 6.75L3.77274 7.25C4.02639 6.81066 4.60392 6.68638 5.01584 6.98249L5.59953 6.17051ZM2.90671 6.75C2.35725 7.7017 2.74962 8.91976 3.75127 9.3718L4.16262 8.46032C3.70022 8.25164 3.51908 7.68934 3.77274 7.25L2.90671 6.75ZM3.75127 9.3718L10.5848 12.4558L10.9962 11.5443L4.16262 8.46032L3.75127 9.3718ZM4.16266 15.5397L10.9962 12.4558L10.5848 11.5443L3.75132 14.6282L4.16266 15.5397ZM3.77279 16.75C3.51913 16.3107 3.70027 15.7484 4.16266 15.5397L3.75132 14.6282C2.74967 15.0802 2.3573 16.2983 2.90676 17.25L3.77279 16.75ZM5.01589 17.0175C4.60397 17.3136 4.02644 17.1893 3.77279 16.75L2.90676 17.25C3.45622 18.2017 4.70728 18.4709 5.59958 17.8295L5.01589 17.0175ZM11.1034 12.6415L5.01589 17.0175L5.59958 17.8295L11.6871 13.4535L11.1034 12.6415ZM11.1467 20.5572L11.8927 13.0972L10.8977 12.9977L10.1517 20.4577L11.1467 20.5572ZM12 21.5C11.4927 21.5 11.0963 21.062 11.1467 20.5572L10.1517 20.4577C10.0424 21.5512 10.901 22.5 12 22.5V21.5ZM12.8532 20.5572C12.9037 21.062 12.5073 21.5 12 21.5V22.5C13.0989 22.5 13.9576 21.5512 13.8482 20.4577L12.8532 20.5572ZM12.1072 13.0972L12.8532 20.5572L13.8482 20.4577L13.1022 12.9977L12.1072 13.0972ZM12.3129 13.4534L18.4004 17.8295L18.9841 17.0175L12.8966 12.6415L12.3129 13.4534ZM18.4004 17.8295C19.2927 18.4709 20.5438 18.2017 21.0932 17.25L20.2272 16.75C19.9736 17.1893 19.396 17.3136 18.9841 17.0175L18.4004 17.8295ZM21.0932 17.25C21.6427 16.2983 21.2503 15.0802 20.2487 14.6282L19.8373 15.5397C20.2997 15.7484 20.4809 16.3107 20.2272 16.75L21.0932 17.25ZM20.2487 14.6282L13.4152 11.5443L13.0038 12.4558L19.8373 15.5397L20.2487 14.6282ZM19.8374 8.46032L13.0038 11.5443L13.4152 12.4558L20.2487 9.3718L19.8374 8.46032ZM20.2273 7.25C20.4809 7.68934 20.2998 8.25164 19.8374 8.46032L20.2487 9.3718C21.2504 8.91976 21.6428 7.7017 21.0933 6.75L20.2273 7.25ZM18.9842 6.98249C19.3961 6.68638 19.9736 6.81066 20.2273 7.25L21.0933 6.75C20.5438 5.7983 19.2928 5.52908 18.4005 6.17051L18.9842 6.98249ZM12.8966 11.3586L18.9842 6.98249L18.4005 6.17051L12.3129 10.5466L12.8966 11.3586ZM12.8532 3.4428L12.1072 10.9028L13.1022 11.0023L13.8482 3.54231L12.8532 3.4428Z" fill="#2796CE"/>
</svg>
