<svg width="24" height="24" viewBox="0 0 24 24" fill="none" xmlns="http://www.w3.org/2000/svg">
<path fill-rule="evenodd" clip-rule="evenodd" d="M13.3507 3.49256C13.4306 2.69343 12.8031 2 12 2C11.1969 2 10.5693 2.69343 10.6492 3.49256L11.3952 10.9525L5.30769 6.5765C4.65558 6.10773 3.74128 6.30448 3.33972 7C2.93817 7.69552 3.22492 8.5857 3.95694 8.91606L10.7905 12L3.95699 15.0839C3.22497 15.4143 2.93822 16.3045 3.33977 17C3.74133 17.6955 4.65563 17.8923 5.30774 17.4235L11.3952 13.0475L10.6492 20.5074C10.5693 21.3066 11.1969 22 12 22C12.8031 22 13.4306 21.3066 13.3507 20.5074L12.6047 13.0474L18.6923 17.4235C19.3444 17.8923 20.2587 17.6955 20.6602 17C21.0618 16.3045 20.775 15.4143 20.043 15.0839L13.2095 12L20.0431 8.91606C20.7751 8.5857 21.0618 7.69552 20.6603 7C20.2587 6.30448 19.3444 6.10773 18.6923 6.5765L12.6047 10.9526L13.3507 3.49256Z" fill="#E7430F"/>
<path d="M13.3507 3.49256L12.8532 3.4428V3.4428L13.3507 3.49256ZM10.6492 3.49256L11.1467 3.44281V3.44281L10.6492 3.49256ZM11.3952 10.9525L11.1034 11.3585L12.003 12.0052L11.8927 10.9028L11.3952 10.9525ZM5.30769 6.5765L5.01584 6.98249H5.01584L5.30769 6.5765ZM3.33972 7L2.90671 6.75L3.33972 7ZM3.95694 8.91606L3.75127 9.3718H3.75127L3.95694 8.91606ZM10.7905 12L10.9962 12.4558L12.006 12L10.9962 11.5443L10.7905 12ZM3.95699 15.0839L3.75132 14.6282H3.75132L3.95699 15.0839ZM3.33977 17L2.90676 17.25L3.33977 17ZM5.30774 17.4235L5.01589 17.0175H5.01589L5.30774 17.4235ZM11.3952 13.0475L11.8927 13.0972L12.003 11.9948L11.1034 12.6415L11.3952 13.0475ZM10.6492 20.5074L11.1467 20.5572L10.6492 20.5074ZM13.3507 20.5074L13.8482 20.4577L13.3507 20.5074ZM12.6047 13.0474L12.8966 12.6415L11.997 11.9948L12.1072 13.0972L12.6047 13.0474ZM18.6923 17.4235L18.9841 17.0175H18.9841L18.6923 17.4235ZM20.043 15.0839L20.2487 14.6282L20.043 15.0839ZM13.2095 12L13.0038 11.5443L11.994 12L13.0038 12.4558L13.2095 12ZM20.0431 8.91606L19.8374 8.46032L20.0431 8.91606ZM18.6923 6.5765L18.4005 6.17051V6.17051L18.6923 6.5765ZM12.6047 10.9526L12.1072 10.9028L11.997 12.0053L12.8966 11.3586L12.6047 10.9526ZM12 2.5C12.5073 2.5 12.9037 2.93802 12.8532 3.4428L13.8482 3.54231C13.9576 2.44883 13.0989 1.5 12 1.5V2.5ZM11.1467 3.44281C11.0963 2.93802 11.4927 2.5 12 2.5V1.5C10.901 1.5 10.0424 2.44884 10.1517 3.54231L11.1467 3.44281ZM11.8927 10.9028L11.1467 3.44281L10.1517 3.54231L10.8977 11.0023L11.8927 10.9028ZM11.6871 10.5466L5.59953 6.17051L5.01584 6.98249L11.1034 11.3585L11.6871 10.5466ZM5.59953 6.17051C4.70723 5.52908 3.45617 5.7983 2.90671 6.75L3.77274 7.25C4.02639 6.81066 4.60392 6.68638 5.01584 6.98249L5.59953 6.17051ZM2.90671 6.75C2.35725 7.7017 2.74962 8.91976 3.75127 9.3718L4.16262 8.46032C3.70022 8.25164 3.51908 7.68934 3.77274 7.25L2.90671 6.75ZM3.75127 9.3718L10.5848 12.4558L10.9962 11.5443L4.16262 8.46032L3.75127 9.3718ZM4.16266 15.5397L10.9962 12.4558L10.5848 11.5443L3.75132 14.6282L4.16266 15.5397ZM3.77279 16.75C3.51913 16.3107 3.70027 15.7484 4.16266 15.5397L3.75132 14.6282C2.74967 15.0802 2.3573 16.2983 2.90676 17.25L3.77279 16.75ZM5.01589 17.0175C4.60397 17.3136 4.02644 17.1893 3.77279 16.75L2.90676 17.25C3.45622 18.2017 4.70728 18.4709 5.59958 17.8295L5.01589 17.0175ZM11.1034 12.6415L5.01589 17.0175L5.59958 17.8295L11.6871 13.4535L11.1034 12.6415ZM11.1467 20.5572L11.8927 13.0972L10.8977 12.9977L10.1517 20.4577L11.1467 20.5572ZM12 21.5C11.4927 21.5 11.0963 21.062 11.1467 20.5572L10.1517 20.4577C10.0424 21.5512 10.901 22.5 12 22.5V21.5ZM12.8532 20.5572C12.9037 21.062 12.5073 21.5 12 21.5V22.5C13.0989 22.5 13.9576 21.5512 13.8482 20.4577L12.8532 20.5572ZM12.1072 13.0972L12.8532 20.5572L13.8482 20.4577L13.1022 12.9977L12.1072 13.0972ZM12.3129 13.4534L18.4004 17.8295L18.9841 17.0175L12.8966 12.6415L12.3129 13.4534ZM18.4004 17.8295C19.2927 18.4709 20.5438 18.2017 21.0932 17.25L20.2272 16.75C19.9736 17.1893 19.396 17.3136 18.9841 17.0175L18.4004 17.8295ZM21.0932 17.25C21.6427 16.2983 21.2503 15.0802 20.2487 14.6282L19.8373 15.5397C20.2997 15.7484 20.4809 16.3107 20.2272 16.75L21.0932 17.25ZM20.2487 14.6282L13.4152 11.5443L13.0038 12.4558L19.8373 15.5397L20.2487 14.6282ZM19.8374 8.46032L13.0038 11.5443L13.4152 12.4558L20.2487 9.3718L19.8374 8.46032ZM20.2273 7.25C20.4809 7.68934 20.2998 8.25164 19.8374 8.46032L20.2487 9.3718C21.2504 8.91976 21.6428 7.7017 21.0933 6.75L20.2273 7.25ZM18.9842 6.98249C19.3961 6.68638 19.9736 6.81066 20.2273 7.25L21.0933 6.75C20.5438 5.7983 19.2928 5.52908 18.4005 6.17051L18.9842 6.98249ZM12.8966 11.3586L18.9842 6.98249L18.4005 6.17051L12.3129 10.5466L12.8966 11.3586ZM12.8532 3.4428L12.1072 10.9028L13.1022 11.0023L13.8482 3.54231L12.8532 3.4428Z" fill="#E7430F"/>
</svg>
