<svg width="20" height="22" viewBox="0 0 20 22" fill="none" xmlns="http://www.w3.org/2000/svg">
<path fill-rule="evenodd" clip-rule="evenodd" d="M11.3507 2.49256C11.4306 1.69343 10.8031 1 9.99998 1C9.19686 1 8.56932 1.69343 8.64923 2.49256L9.39523 9.95255L3.30769 5.5765C2.65558 5.10773 1.74128 5.30448 1.33972 6C0.938166 6.69552 1.22492 7.5857 1.95694 7.91606L8.79051 11L1.95699 14.0839C1.22497 14.4143 0.938215 15.3045 1.33977 16C1.74133 16.6955 2.65563 16.8923 3.30774 16.4235L9.39523 12.0475L8.64923 19.5074C8.56932 20.3066 9.19686 21 9.99998 21C10.8031 21 11.4306 20.3066 11.3507 19.5074L10.6047 12.0474L16.6923 16.4235C17.3444 16.8923 18.2587 16.6955 18.6602 16C19.0618 15.3045 18.775 14.4143 18.043 14.0839L11.2095 11L18.0431 7.91606C18.7751 7.5857 19.0618 6.69552 18.6603 6C18.2587 5.30448 17.3444 5.10773 16.6923 5.5765L10.6047 9.95259L11.3507 2.49256Z" fill="#2796CE"/>
<path d="M11.3507 2.49256L10.8532 2.4428V2.4428L11.3507 2.49256ZM8.64923 2.49256L9.14675 2.44281V2.44281L8.64923 2.49256ZM9.39523 9.95255L9.10338 10.3585L10.003 11.0052L9.89275 9.9028L9.39523 9.95255ZM3.30769 5.5765L3.01584 5.98249H3.01584L3.30769 5.5765ZM1.33972 6L0.906711 5.75L1.33972 6ZM1.95694 7.91606L1.75127 8.3718H1.75127L1.95694 7.91606ZM8.79051 11L8.99619 11.4558L10.006 11L8.99619 10.5443L8.79051 11ZM1.95699 14.0839L1.75132 13.6282H1.75132L1.95699 14.0839ZM1.33977 16L0.90676 16.25L1.33977 16ZM3.30774 16.4235L3.01589 16.0175H3.01589L3.30774 16.4235ZM9.39523 12.0475L9.89275 12.0972L10.003 10.9948L9.10338 11.6415L9.39523 12.0475ZM8.64923 19.5074L9.14675 19.5572L8.64923 19.5074ZM11.3507 19.5074L11.8482 19.4577L11.3507 19.5074ZM10.6047 12.0474L10.8966 11.6415L9.99696 10.9948L10.1072 12.0972L10.6047 12.0474ZM16.6923 16.4235L16.9841 16.0175H16.9841L16.6923 16.4235ZM18.043 14.0839L18.2487 13.6282L18.043 14.0839ZM11.2095 11L11.0038 10.5443L9.99397 11L11.0038 11.4558L11.2095 11ZM18.0431 7.91606L17.8374 7.46032L18.0431 7.91606ZM16.6923 5.5765L16.4005 5.17051V5.17051L16.6923 5.5765ZM10.6047 9.95259L10.1072 9.90284L9.99695 11.0053L10.8966 10.3586L10.6047 9.95259ZM9.99998 1.5C10.5073 1.5 10.9037 1.93802 10.8532 2.4428L11.8482 2.54231C11.9576 1.44883 11.0989 0.5 9.99998 0.5V1.5ZM9.14675 2.44281C9.09627 1.93802 9.49267 1.5 9.99998 1.5V0.5C8.90105 0.5 8.04237 1.44884 8.15171 2.54231L9.14675 2.44281ZM9.89275 9.9028L9.14675 2.44281L8.15171 2.54231L8.89771 10.0023L9.89275 9.9028ZM9.68708 9.54656L3.59953 5.17051L3.01584 5.98249L9.10338 10.3585L9.68708 9.54656ZM3.59953 5.17051C2.70723 4.52908 1.45617 4.7983 0.906711 5.75L1.77274 6.25C2.02639 5.81066 2.60392 5.68638 3.01584 5.98249L3.59953 5.17051ZM0.906711 5.75C0.357247 6.7017 0.749623 7.91976 1.75127 8.3718L2.16262 7.46032C1.70022 7.25164 1.51908 6.68934 1.77274 6.25L0.906711 5.75ZM1.75127 8.3718L8.58484 11.4558L8.99619 10.5443L2.16262 7.46032L1.75127 8.3718ZM2.16266 14.5397L8.99619 11.4558L8.58484 10.5443L1.75132 13.6282L2.16266 14.5397ZM1.77279 15.75C1.51913 15.3107 1.70027 14.7484 2.16266 14.5397L1.75132 13.6282C0.74967 14.0802 0.357297 15.2983 0.90676 16.25L1.77279 15.75ZM3.01589 16.0175C2.60397 16.3136 2.02644 16.1893 1.77279 15.75L0.90676 16.25C1.45622 17.2017 2.70728 17.4709 3.59958 16.8295L3.01589 16.0175ZM9.10338 11.6415L3.01589 16.0175L3.59958 16.8295L9.68707 12.4535L9.10338 11.6415ZM9.14675 19.5572L9.89275 12.0972L8.89771 11.9977L8.15171 19.4577L9.14675 19.5572ZM9.99998 20.5C9.49267 20.5 9.09627 20.062 9.14675 19.5572L8.15171 19.4577C8.04237 20.5512 8.90105 21.5 9.99998 21.5V20.5ZM10.8532 19.5572C10.9037 20.062 10.5073 20.5 9.99998 20.5V21.5C11.0989 21.5 11.9576 20.5512 11.8482 19.4577L10.8532 19.5572ZM10.1072 12.0972L10.8532 19.5572L11.8482 19.4577L11.1022 11.9977L10.1072 12.0972ZM10.3129 12.4534L16.4004 16.8295L16.9841 16.0175L10.8966 11.6415L10.3129 12.4534ZM16.4004 16.8295C17.2927 17.4709 18.5438 17.2017 19.0932 16.25L18.2272 15.75C17.9736 16.1893 17.396 16.3136 16.9841 16.0175L16.4004 16.8295ZM19.0932 16.25C19.6427 15.2983 19.2503 14.0802 18.2487 13.6282L17.8373 14.5397C18.2997 14.7484 18.4809 15.3107 18.2272 15.75L19.0932 16.25ZM18.2487 13.6282L11.4152 10.5443L11.0038 11.4558L17.8373 14.5397L18.2487 13.6282ZM17.8374 7.46032L11.0038 10.5443L11.4152 11.4558L18.2487 8.3718L17.8374 7.46032ZM18.2273 6.25C18.4809 6.68934 18.2998 7.25164 17.8374 7.46032L18.2487 8.3718C19.2504 7.91976 19.6428 6.7017 19.0933 5.75L18.2273 6.25ZM16.9842 5.98249C17.3961 5.68638 17.9736 5.81066 18.2273 6.25L19.0933 5.75C18.5438 4.7983 17.2928 4.52908 16.4005 5.17051L16.9842 5.98249ZM10.8966 10.3586L16.9842 5.98249L16.4005 5.17051L10.3129 9.5466L10.8966 10.3586ZM10.8532 2.4428L10.1072 9.90284L11.1022 10.0023L11.8482 2.54231L10.8532 2.4428Z" fill="#2796CE"/>
</svg>
